<svg width="120" height="120" viewBox="0 0 120 120" fill="none" xmlns="http://www.w3.org/2000/svg">
  <!-- 배경 -->
  <rect width="120" height="120" rx="28" fill="none"/>

  <!-- 축구공 -->
  <circle cx="42" cy="48" r="20" fill="white" stroke="#222222" stroke-width="4"/>
  
  <polygon
    points="42,38 48,43 46,51 38,51 36,43"
    fill="#222222"
  />

  <path d="M42 28V38" stroke="#222222" stroke-width="3" stroke-linecap="round"/>
  <path d="M24 48H34" stroke="#222222" stroke-width="3" stroke-linecap="round"/>
  <path d="M50 48H60" stroke="#222222" stroke-width="3" stroke-linecap="round"/>
  <path d="M32 62L38 54" stroke="#222222" stroke-width="3" stroke-linecap="round"/>
  <path d="M52 62L46 54" stroke="#222222" stroke-width="3" stroke-linecap="round"/>

  <!-- 농구공 -->
  <circle cx="78" cy="72" r="22" fill="#F97316"/>

  <path
    d="M56 72H100"
    stroke="#222222"
    stroke-width="3"
  />

  <path
    d="M78 50C88 58 88 86 78 94"
    stroke="#222222"
    stroke-width="3"
  />

  <path
    d="M78 50C68 58 68 86 78 94"
    stroke="#222222"
    stroke-width="3"
  />

  <!-- 움직임 효과 -->
  <path
    d="M18 84C26 80 30 80 38 84"
    stroke="#5332C9"
    stroke-width="4"
    stroke-linecap="round"
  />

  <path
    d="M22 94C30 90 34 90 42 94"
    stroke="#5332C9"
    stroke-width="4"
    stroke-linecap="round"
  />
</svg>